<?xml version="1.0" encoding="UTF-8"?>
<!DOCTYPE svg PUBLIC "-//W3C//DTD SVG 1.1//EN" "http://www.w3.org/Graphics/SVG/1.1/DTD/svg11.dtd">
<!-- Creator: CorelDRAW -->
<svg xmlns="http://www.w3.org/2000/svg" xml:space="preserve" width="7.44791in" height="1.13542in" style="shape-rendering:geometricPrecision; text-rendering:geometricPrecision; image-rendering:optimizeQuality; fill-rule:evenodd; clip-rule:evenodd"
viewBox="0 0 7.44791 1.13542"
 xmlns:xlink="http://www.w3.org/1999/xlink">
 <defs>
  <style type="text/css">
   <![CDATA[
    .str0 {stroke:#F8C300;stroke-width:0.11111}
    .fil2 {fill:none}
    .fil1 {fill:#F8C300;fill-rule:nonzero}
    .fil0 {fill:#0F5C89;fill-rule:nonzero}
   ]]>
  </style>
 </defs>
 <g id="Layer_x0020_1">
  <metadata id="CorelCorpID_0Corel-Layer"/>
  <g id="_126650616">
   <path id="_126649296" class="fil0" d="M0.154921 0.00702756l0.705161 0.00118898c0.0868071,0.00142913 0.130571,0.0466142 0.131043,0.135327 0,0.0946535 -0.0470906,0.142697 -0.140791,0.144122l-0.555331 0 0 0.137941 0.557469 0c0.0918031,0.00142913 0.138181,0.0478031 0.138654,0.139366 -0.0014252,0.0929921 -0.0478031,0.13937 -0.138654,0.13937l-0.557469 0.000712598 0 0.278736c-0.000476378,0.091563 -0.0470906,0.137701 -0.140083,0.138654 -0.0925157,0 -0.13889,-0.0449488 -0.139366,-0.135087l0 -0.839772c0.000476378,-0.0918031 0.0468504,-0.138894 0.139366,-0.140559z"/>
   <path id="_1266492961" class="fil0" d="M1.26915 0.00702756c0.0932283,0.00214173 0.140555,0.0478031 0.141508,0.136516l-0.0014252 0.699453 0.553902 0c0.0937047,0.000476378 0.140795,0.0473268 0.140795,0.140795 -0.000476378,0.091563 -0.0466142,0.137701 -0.137941,0.138654l-0.696839 0c-0.0925157,0 -0.13889,-0.0449488 -0.139366,-0.135087l0 -0.839772c0.000476378,-0.0918031 0.0468504,-0.138894 0.139366,-0.140559z"/>
   <path id="_12664929612" class="fil0" d="M2.38338 0.00702756l0.705161 0.00118898c0.0868071,0.00142913 0.130571,0.0466142 0.131043,0.135327 0,0.0946535 -0.0470906,0.142697 -0.140791,0.144122l-0.555331 0 0 0.555331 0.553902 0c0.0937047,0.000476378 0.140795,0.0473268 0.140795,0.140795 -0.000476378,0.091563 -0.0466142,0.137701 -0.137941,0.138654l-0.696839 0c-0.0925157,0 -0.13889,-0.0449488 -0.139366,-0.135087l0 -0.839772c0.000476378,-0.0918031 0.0468504,-0.138894 0.139366,-0.140559zm0.206909 0.561516c0.000952756,-0.0929921 0.0468543,-0.140083 0.137941,-0.141508l0.280165 0c0.092752,0.000948819 0.140079,0.047563 0.141508,0.140079 -0.00190551,0.0929921 -0.0489921,0.13937 -0.140795,0.13937l-0.280161 0c-0.0920394,0.000472441 -0.138181,-0.0454252 -0.138657,-0.137941z"/>
   <path id="_126649296123" class="fil0" d="M3.49761 0.00702756l0.705161 0.00118898c0.0868071,0.00142913 0.130571,0.0466142 0.131043,0.135327 0,0.0946535 -0.0470906,0.142697 -0.140791,0.144122l-0.555331 0 0 0.555331 0.553902 0c0.0937047,0.000476378 0.140795,0.0473268 0.140795,0.140795 -0.000476378,0.091563 -0.0466142,0.137701 -0.137941,0.138654l-0.696839 0c-0.0925157,0 -0.13889,-0.0449488 -0.139366,-0.135087l0 -0.839772c0.000476378,-0.0918031 0.0468504,-0.138894 0.139366,-0.140559zm0.206909 0.561516c0.000952756,-0.0929921 0.0468543,-0.140083 0.137941,-0.141508l0.280165 0c0.092752,0.000948819 0.140079,0.047563 0.141508,0.140079 -0.00190551,0.0929921 -0.0489921,0.13937 -0.140795,0.13937l-0.280161 0c-0.0920394,0.000472441 -0.138181,-0.0454252 -0.138657,-0.137941z"/>
   <path id="_1266492961234" class="fil0" d="M4.61183 0.00702756l0.705161 0.00118898c0.0868071,0.00142913 0.130571,0.0466142 0.131043,0.135327 0,0.0946535 -0.0470906,0.142697 -0.140791,0.144122l-0.208339 0 0.000712598 0.696126c-0.000952756,0.091563 -0.0478031,0.137701 -0.140083,0.138654 -0.0929882,0 -0.139366,-0.0449488 -0.139366,-0.135087l0.000712598 -0.699693 -0.209051 0c-0.0929921,0 -0.139366,-0.0466142 -0.139366,-0.140079 0.000476378,-0.0918031 0.0468504,-0.138894 0.139366,-0.140559z"/>
   <path id="_12664929612345" class="fil1" d="M5.72606 0.00821654c0.0468543,0.000952756 0.0815748,0.0128425 0.103693,0.0356732 0.0223583,0.0228346 0.127717,0.127717 0.315839,0.314886 0.185744,-0.185744 0.29015,-0.290626 0.313457,-0.314646 0.0233071,-0.0237835 0.0577913,-0.0359134 0.103693,-0.0359134 0.0925157,0.000476378 0.138894,0.0468543 0.13937,0.138654l0.000712598 0.836209c0,0.0925157 -0.0468543,0.139366 -0.140559,0.140791 -0.0920394,-0.000472441 -0.138654,-0.0473268 -0.140079,-0.140791l0 -0.492543c-0.0934685,0.0960827 -0.151736,0.156016 -0.174567,0.179323 -0.0230709,0.0235433 -0.0575551,0.0351969 -0.103457,0.0351969 -0.0447126,0 -0.0789567,-0.0121299 -0.10274,-0.0361496 -0.0240236,-0.0242598 -0.0825276,-0.0827638 -0.17528,-0.175756l0 0.489929c-0.000476378,0.0920394 -0.0468543,0.138413 -0.13937,0.139366 -0.0934646,0.000476378 -0.139843,-0.0459016 -0.139366,-0.139366l0 -0.836209c0,-0.0922756 0.0461378,-0.138654 0.138654,-0.138654z"/>
   <path id="_126650016" class="fil2 str0" d="M6.59731 0.432701l0.69939 0m-0.69939 0.169827l0 -0.539657 0.483339 0c0.210772,0 0.408819,0.772516 0.217902,0.774307l-0.16952 0.00159843m-0.241917 -0.164134c0.0921299,0 0.169579,0.0601732 0.19174,0.141673 0.00415354,0.0152756 0.00638189,0.031315 0.00638189,0.0478346 0,0.104646 -0.0887205,0.189508 -0.198122,0.189508 -0.109398,0 -0.198118,-0.0848622 -0.198118,-0.189508 0,-0.075752 0.0464882,-0.141138 0.113657,-0.171469 0.025622,-0.0115709 0.0542559,-0.0180394 0.0844606,-0.0180394z"/>
  </g>
 </g>
</svg>
